<svg xmlns="http://www.w3.org/2000/svg" width="900" height="330" viewBox="0 0 900 330" font-family="Source Han Sans SC, Noto Sans CJK SC, DejaVu Sans, sans-serif">
<rect width="900" height="330" fill="#ffffff"/>
<text x="450.0" y="30" font-size="17" font-weight="700" fill="#1f2b38" text-anchor="middle">OCR 流水线：从传统级联到多模态大模型端到端</text>
<defs><marker id="ah" viewBox="0 0 10 10" refX="9" refY="5" markerWidth="6.5" markerHeight="6.5" orient="auto-start-reverse">
<path d="M 0 0 L 10 5 L 0 10 z" fill="#5b6b7c"/></marker></defs><text x="430" y="64" font-size="13" fill="#2f6fd0" text-anchor="middle" font-weight="700">传统 / 现代工程流水线</text><rect x="40" y="80" width="190" height="66" rx="8" fill="#ffffff" stroke="#c8d3e0" stroke-width="1.4"/><text x="135.0" y="109.0" font-size="13" font-weight="600" fill="#1f2b38" text-anchor="middle">图像预处理</text><text x="135.0" y="129.0" font-size="10" fill="#5b6b7c" text-anchor="middle">去噪·矫正·二值化</text><line x1="234" y1="113" x2="252" y2="113" stroke="#5b6b7c" stroke-width="1.8" marker-end="url(#ah)"/><rect x="252" y="80" width="190" height="66" rx="8" fill="#ffffff" stroke="#c8d3e0" stroke-width="1.4"/><text x="347.0" y="109.0" font-size="13" font-weight="600" fill="#1f2b38" text-anchor="middle">文本检测</text><text x="347.0" y="129.0" font-size="10" fill="#5b6b7c" text-anchor="middle">DBNet / FPN</text><line x1="446" y1="113" x2="464" y2="113" stroke="#5b6b7c" stroke-width="1.8" marker-end="url(#ah)"/><rect x="464" y="80" width="190" height="66" rx="8" fill="#ffffff" stroke="#c8d3e0" stroke-width="1.4"/><text x="559.0" y="109.0" font-size="13" font-weight="600" fill="#1f2b38" text-anchor="middle">文本识别</text><text x="559.0" y="129.0" font-size="10" fill="#5b6b7c" text-anchor="middle">CRNN + CTC/Attention</text><line x1="658" y1="113" x2="676" y2="113" stroke="#5b6b7c" stroke-width="1.8" marker-end="url(#ah)"/><rect x="676" y="80" width="190" height="66" rx="8" fill="#ffffff" stroke="#c8d3e0" stroke-width="1.4"/><text x="771.0" y="109.0" font-size="13" font-weight="600" fill="#1f2b38" text-anchor="middle">后处理</text><text x="771.0" y="129.0" font-size="10" fill="#5b6b7c" text-anchor="middle">语言模型纠错·版面还原</text><text x="450" y="196" font-size="13" fill="#2e9e5b" text-anchor="middle" font-weight="700">大模型时代：端到端文档理解</text><rect x="40" y="212" width="190" height="66" rx="8" fill="#eaf7ef" stroke="#2e9e5b" stroke-width="1.4"/><text x="135.0" y="241.0" font-size="13" font-weight="600" fill="#2e9e5b" text-anchor="middle">版面检测</text><text x="135.0" y="261.0" font-size="10" fill="#5b6b7c" text-anchor="middle">DocLayout-YOLO</text><line x1="234" y1="245" x2="252" y2="245" stroke="#2e9e5b" stroke-width="1.8" marker-end="url(#ah)"/><rect x="252" y="212" width="190" height="66" rx="8" fill="#eaf7ef" stroke="#2e9e5b" stroke-width="1.4"/><text x="347.0" y="241.0" font-size="13" font-weight="600" fill="#2e9e5b" text-anchor="middle">分块识别</text><text x="347.0" y="261.0" font-size="10" fill="#5b6b7c" text-anchor="middle">轻量 LLM / VLM</text><line x1="446" y1="245" x2="464" y2="245" stroke="#2e9e5b" stroke-width="1.8" marker-end="url(#ah)"/><rect x="464" y="212" width="190" height="66" rx="8" fill="#eaf7ef" stroke="#2e9e5b" stroke-width="1.4"/><text x="559.0" y="241.0" font-size="13" font-weight="600" fill="#2e9e5b" text-anchor="middle">关系预测</text><text x="559.0" y="261.0" font-size="10" fill="#5b6b7c" text-anchor="middle">跨块逻辑与阅读顺序</text><line x1="658" y1="245" x2="676" y2="245" stroke="#2e9e5b" stroke-width="1.8" marker-end="url(#ah)"/><rect x="676" y="212" width="190" height="66" rx="8" fill="#eaf7ef" stroke="#2e9e5b" stroke-width="1.4"/><text x="771.0" y="241.0" font-size="13" font-weight="600" fill="#2e9e5b" text-anchor="middle">结构化输出</text><text x="771.0" y="261.0" font-size="10" fill="#5b6b7c" text-anchor="middle">Markdown / JSON / 表格</text><text x="450" y="306" font-size="11.5" fill="#5b6b7c" text-anchor="middle" font-weight="400">代表模型：Donut · Nougat（公式/论文）· GOT-OCR2.0 · Qwen-VL · InternVL · dots.ocr；传统 OCR 在小语种、低算力场景仍有成本优势</text></svg>